<?xml version="1.0" encoding="UTF-8" standalone="no"?><!-- Generator: Gravit.io --><svg xmlns="http://www.w3.org/2000/svg" xmlns:xlink="http://www.w3.org/1999/xlink" style="isolation:isolate" viewBox="0 0 615 190" width="615pt" height="190pt"><g><path d=" M 492.5 135.5 L 492.5 27.5 L 479 27.5 L 479 135.5 L 492.5 135.5 Z  M 581.683 43.316 C 571.484 33.117 557.922 27.5 543.5 27.5 L 507.5 27.5 L 507.5 135.5 L 543.5 135.5 C 557.924 135.5 571.486 129.883 581.683 119.684 C 591.883 109.485 597.5 95.924 597.5 81.5 C 597.5 67.076 591.883 53.514 581.683 43.316 L 581.683 43.316 Z  M 572.137 110.138 C 564.488 117.786 554.318 122 543.5 122 L 521 122 L 521 41 L 543.5 41 C 554.318 41 564.488 45.213 572.138 52.862 C 579.787 60.51 584 70.682 584 81.5 C 584 92.318 579.787 102.488 572.137 110.138 Z " fill="rgb(166,218,57)"/><path d=" M 459.105 83.645 C 453.36 77.915 445.74 74.75 437.625 74.75 L 423.375 74.75 C 418.875 74.75 414.63 72.995 411.435 69.8 C 408.255 66.62 406.5 62.39 406.5 57.875 C 406.5 53.375 408.255 49.13 411.45 45.95 C 414.63 42.755 418.875 41 423.375 41 L 461.25 41 L 461.25 27.5 L 423.375 27.5 C 415.26 27.5 407.64 30.665 401.895 36.395 C 396.165 42.14 393 49.76 393 57.875 C 393 65.99 396.165 73.625 401.895 79.355 C 407.64 85.085 415.26 88.25 423.375 88.25 L 437.625 88.25 C 442.125 88.25 446.37 90.005 449.55 93.2 C 452.745 96.38 454.5 100.625 454.5 105.125 C 454.5 109.64 452.745 113.87 449.565 117.05 C 446.37 120.245 442.125 122 437.625 122 L 396.375 122 L 396.375 135.5 L 437.625 135.5 C 445.74 135.5 453.36 132.335 459.105 126.605 C 464.835 120.875 468 113.24 468 105.125 C 468 97.01 464.835 89.39 459.105 83.645 Z  M 381.485 27.5 L 348.5 74.39 L 315.515 27.5 L 299 27.5 L 341.75 88.25 L 341.75 135.5 L 355.25 135.5 L 355.25 88.25 L 398 27.5 L 381.485 27.5 Z  M 289.105 83.645 C 283.36 77.915 275.74 74.75 267.625 74.75 L 253.375 74.75 C 248.875 74.75 244.63 72.995 241.435 69.8 C 238.255 66.62 236.5 62.39 236.5 57.875 C 236.5 53.375 238.255 49.13 241.45 45.95 C 244.63 42.755 248.875 41 253.375 41 L 291.25 41 L 291.25 27.5 L 253.375 27.5 C 245.26 27.5 237.64 30.665 231.895 36.395 C 226.165 42.14 223 49.76 223 57.875 C 223 65.99 226.165 73.625 231.895 79.355 C 237.64 85.085 245.26 88.25 253.375 88.25 L 267.625 88.25 C 272.125 88.25 276.37 90.005 279.55 93.2 C 282.745 96.38 284.5 100.625 284.5 105.125 C 284.5 109.64 282.745 113.87 279.565 117.05 C 276.37 120.245 272.125 122 267.625 122 L 226.375 122 L 226.375 135.5 L 267.625 135.5 C 275.74 135.5 283.36 132.335 289.105 126.605 C 294.835 120.875 298 113.24 298 105.125 C 298 97.01 294.835 89.39 289.105 83.645 Z " fill="rgb(67,63,136)"/><path d=" M 211.485 27.5 L 178.5 74.39 L 145.515 27.5 L 129 27.5 L 171.75 88.25 L 171.75 135.5 L 185.25 135.5 L 185.25 88.25 L 228 27.5 L 211.485 27.5 Z  M 110.5 27.5 L 70 73.79 L 29.5 27.5 L 16 27.5 L 16 135.5 L 29.5 135.5 L 29.5 48.005 L 70 94.28 L 110.5 48.005 L 110.5 135.5 L 124 135.5 L 124 27.5 L 110.5 27.5 Z " fill="rgb(42,39,68)"/><path d=" M 493.288 170.264 L 493.288 170.264 L 493.288 170.264 Q 494.212 170.264 494.814 170.11 L 494.814 170.11 L 494.814 170.11 Q 495.416 169.956 495.78 169.69 L 495.78 169.69 L 495.78 169.69 Q 496.144 169.424 496.284 169.06 L 496.284 169.06 L 496.284 169.06 Q 496.424 168.696 496.424 168.248 L 496.424 168.248 L 496.424 168.248 Q 496.424 167.296 495.528 166.666 L 495.528 166.666 L 495.528 166.666 Q 494.632 166.036 492.448 165.308 L 492.448 165.308 L 492.448 165.308 Q 491.496 164.972 490.544 164.538 L 490.544 164.538 L 490.544 164.538 Q 489.592 164.104 488.836 163.446 L 488.836 163.446 L 488.836 163.446 Q 488.08 162.788 487.604 161.85 L 487.604 161.85 L 487.604 161.85 Q 487.128 160.912 487.128 159.568 L 487.128 159.568 L 487.128 159.568 Q 487.128 158.224 487.632 157.146 L 487.632 157.146 L 487.632 157.146 Q 488.136 156.068 489.06 155.312 L 489.06 155.312 L 489.06 155.312 Q 489.984 154.556 491.3 154.15 L 491.3 154.15 L 491.3 154.15 Q 492.616 153.744 494.268 153.744 L 494.268 153.744 L 494.268 153.744 Q 496.228 153.744 497.656 154.164 L 497.656 154.164 L 497.656 154.164 Q 499.084 154.584 500.008 155.088 L 500.008 155.088 L 498.748 158.532 L 498.748 158.532 Q 497.936 158.112 496.942 157.79 L 496.942 157.79 L 496.942 157.79 Q 495.948 157.468 494.548 157.468 L 494.548 157.468 L 494.548 157.468 Q 492.98 157.468 492.294 157.902 L 492.294 157.902 L 492.294 157.902 Q 491.608 158.336 491.608 159.232 L 491.608 159.232 L 491.608 159.232 Q 491.608 159.764 491.86 160.128 L 491.86 160.128 L 491.86 160.128 Q 492.112 160.492 492.574 160.786 L 492.574 160.786 L 492.574 160.786 Q 493.036 161.08 493.638 161.318 L 493.638 161.318 L 493.638 161.318 Q 494.24 161.556 494.968 161.808 L 494.968 161.808 L 494.968 161.808 Q 496.48 162.368 497.6 162.914 L 497.6 162.914 L 497.6 162.914 Q 498.72 163.46 499.462 164.188 L 499.462 164.188 L 499.462 164.188 Q 500.204 164.916 500.568 165.896 L 500.568 165.896 L 500.568 165.896 Q 500.932 166.876 500.932 168.276 L 500.932 168.276 L 500.932 168.276 Q 500.932 170.992 499.028 172.49 L 499.028 172.49 L 499.028 172.49 Q 497.124 173.988 493.288 173.988 L 493.288 173.988 L 493.288 173.988 Q 492 173.988 490.964 173.834 L 490.964 173.834 L 490.964 173.834 Q 489.928 173.68 489.13 173.456 L 489.13 173.456 L 489.13 173.456 Q 488.332 173.232 487.758 172.98 L 487.758 172.98 L 487.758 172.98 Q 487.184 172.728 486.792 172.504 L 486.792 172.504 L 488.024 169.032 L 488.024 169.032 Q 488.892 169.508 490.166 169.886 L 490.166 169.886 L 490.166 169.886 Q 491.44 170.264 493.288 170.264 Z  M 518.04 173.596 L 504.292 173.596 L 504.292 154.192 L 517.396 154.192 L 517.396 157.86 L 508.66 157.86 L 508.66 161.668 L 516.416 161.668 L 516.416 165.252 L 508.66 165.252 L 508.66 169.928 L 518.04 169.928 L 518.04 173.596 L 518.04 173.596 Z  M 530.724 157.552 L 530.724 157.552 L 530.724 157.552 Q 527.672 157.552 526.314 159.246 L 526.314 159.246 L 526.314 159.246 Q 524.956 160.94 524.956 163.88 L 524.956 163.88 L 524.956 163.88 Q 524.956 165.308 525.292 166.47 L 525.292 166.47 L 525.292 166.47 Q 525.628 167.632 526.3 168.472 L 526.3 168.472 L 526.3 168.472 Q 526.972 169.312 527.98 169.774 L 527.98 169.774 L 527.98 169.774 Q 528.988 170.236 530.332 170.236 L 530.332 170.236 L 530.332 170.236 Q 531.06 170.236 531.578 170.208 L 531.578 170.208 L 531.578 170.208 Q 532.096 170.18 532.488 170.096 L 532.488 170.096 L 532.488 163.348 L 536.856 163.348 L 536.856 172.952 L 536.856 172.952 Q 536.072 173.26 534.336 173.61 L 534.336 173.61 L 534.336 173.61 Q 532.6 173.96 530.052 173.96 L 530.052 173.96 L 530.052 173.96 Q 527.868 173.96 526.09 173.288 L 526.09 173.288 L 526.09 173.288 Q 524.312 172.616 523.052 171.328 L 523.052 171.328 L 523.052 171.328 Q 521.792 170.04 521.106 168.164 L 521.106 168.164 L 521.106 168.164 Q 520.42 166.288 520.42 163.88 L 520.42 163.88 L 520.42 163.88 Q 520.42 161.444 521.176 159.568 L 521.176 159.568 L 521.176 159.568 Q 521.932 157.692 523.248 156.39 L 523.248 156.39 L 523.248 156.39 Q 524.564 155.088 526.342 154.416 L 526.342 154.416 L 526.342 154.416 Q 528.12 153.744 530.136 153.744 L 530.136 153.744 L 530.136 153.744 Q 531.508 153.744 532.614 153.926 L 532.614 153.926 L 532.614 153.926 Q 533.72 154.108 534.518 154.346 L 534.518 154.346 L 534.518 154.346 Q 535.316 154.584 535.834 154.836 L 535.834 154.836 L 535.834 154.836 Q 536.352 155.088 536.576 155.228 L 536.576 155.228 L 535.316 158.728 L 535.316 158.728 Q 534.42 158.252 533.258 157.902 L 533.258 157.902 L 533.258 157.902 Q 532.096 157.552 530.724 157.552 Z  M 548.504 173.988 L 548.504 173.988 L 548.504 173.988 Q 546.46 173.988 544.976 173.414 L 544.976 173.414 L 544.976 173.414 Q 543.492 172.84 542.526 171.818 L 542.526 171.818 L 542.526 171.818 Q 541.56 170.796 541.098 169.382 L 541.098 169.382 L 541.098 169.382 Q 540.636 167.968 540.636 166.26 L 540.636 166.26 L 540.636 154.192 L 545.004 154.192 L 545.004 165.896 L 545.004 165.896 Q 545.004 167.072 545.27 167.898 L 545.27 167.898 L 545.27 167.898 Q 545.536 168.724 545.998 169.242 L 545.998 169.242 L 545.998 169.242 Q 546.46 169.76 547.118 169.984 L 547.118 169.984 L 547.118 169.984 Q 547.776 170.208 548.56 170.208 L 548.56 170.208 L 548.56 170.208 Q 550.156 170.208 551.15 169.228 L 551.15 169.228 L 551.15 169.228 Q 552.144 168.248 552.144 165.896 L 552.144 165.896 L 552.144 154.192 L 556.512 154.192 L 556.512 166.26 L 556.512 166.26 Q 556.512 167.968 556.036 169.396 L 556.036 169.396 L 556.036 169.396 Q 555.56 170.824 554.58 171.846 L 554.58 171.846 L 554.58 171.846 Q 553.6 172.868 552.088 173.428 L 552.088 173.428 L 552.088 173.428 Q 550.576 173.988 548.504 173.988 Z  M 566.396 153.968 L 566.396 153.968 L 566.396 153.968 Q 570.764 153.968 573.088 155.522 L 573.088 155.522 L 573.088 155.522 Q 575.412 157.076 575.412 160.352 L 575.412 160.352 L 575.412 160.352 Q 575.412 162.396 574.474 163.67 L 574.474 163.67 L 574.474 163.67 Q 573.536 164.944 571.772 165.672 L 571.772 165.672 L 571.772 165.672 Q 572.36 166.4 573.004 167.338 L 573.004 167.338 L 573.004 167.338 Q 573.648 168.276 574.278 169.298 L 574.278 169.298 L 574.278 169.298 Q 574.908 170.32 575.496 171.426 L 575.496 171.426 L 575.496 171.426 Q 576.084 172.532 576.588 173.596 L 576.588 173.596 L 571.673 173.596 L 571.673 173.596 Q 571.142 172.644 570.598 171.664 L 570.598 171.664 L 570.598 171.664 Q 570.054 170.684 569.482 169.76 L 569.482 169.76 L 569.482 169.76 Q 568.91 168.836 568.352 168.01 L 568.352 168.01 L 568.352 168.01 Q 567.794 167.184 567.236 166.512 L 567.236 166.512 L 565.08 166.512 L 565.08 173.596 L 560.712 173.596 L 560.712 154.472 L 560.712 154.472 Q 562.14 154.192 563.666 154.08 L 563.666 154.08 L 563.666 154.08 Q 565.192 153.968 566.396 153.968 Z  M 566.648 157.692 L 566.648 157.692 L 566.648 157.692 Q 566.172 157.692 565.794 157.72 L 565.794 157.72 L 565.794 157.72 Q 565.416 157.748 565.08 157.776 L 565.08 157.776 L 565.08 163.04 L 566.312 163.04 L 566.312 163.04 Q 568.776 163.04 569.84 162.424 L 569.84 162.424 L 569.84 162.424 Q 570.904 161.808 570.904 160.324 L 570.904 160.324 L 570.904 160.324 Q 570.904 158.896 569.826 158.294 L 569.826 158.294 L 569.826 158.294 Q 568.748 157.692 566.648 157.692 Z  M 582.552 163.88 L 582.552 163.88 L 582.552 163.88 Q 582.552 165.308 582.902 166.456 L 582.902 166.456 L 582.902 166.456 Q 583.252 167.604 583.91 168.43 L 583.91 168.43 L 583.91 168.43 Q 584.568 169.256 585.52 169.704 L 585.52 169.704 L 585.52 169.704 Q 586.472 170.152 587.704 170.152 L 587.704 170.152 L 587.704 170.152 Q 588.908 170.152 589.874 169.704 L 589.874 169.704 L 589.874 169.704 Q 590.84 169.256 591.498 168.43 L 591.498 168.43 L 591.498 168.43 Q 592.156 167.604 592.506 166.456 L 592.506 166.456 L 592.506 166.456 Q 592.856 165.308 592.856 163.88 L 592.856 163.88 L 592.856 163.88 Q 592.856 162.452 592.506 161.29 L 592.506 161.29 L 592.506 161.29 Q 592.156 160.128 591.498 159.302 L 591.498 159.302 L 591.498 159.302 Q 590.84 158.476 589.874 158.028 L 589.874 158.028 L 589.874 158.028 Q 588.908 157.58 587.704 157.58 L 587.704 157.58 L 587.704 157.58 Q 586.472 157.58 585.52 158.042 L 585.52 158.042 L 585.52 158.042 Q 584.568 158.504 583.91 159.33 L 583.91 159.33 L 583.91 159.33 Q 583.252 160.156 582.902 161.318 L 582.902 161.318 L 582.902 161.318 Q 582.552 162.48 582.552 163.88 Z  M 597.364 163.88 L 597.364 163.88 L 597.364 163.88 Q 597.364 166.372 596.622 168.262 L 596.622 168.262 L 596.622 168.262 Q 595.88 170.152 594.592 171.426 L 594.592 171.426 L 594.592 171.426 Q 593.304 172.7 591.526 173.344 L 591.526 173.344 L 591.526 173.344 Q 589.748 173.988 587.704 173.988 L 587.704 173.988 L 587.704 173.988 Q 585.716 173.988 583.952 173.344 L 583.952 173.344 L 583.952 173.344 Q 582.188 172.7 580.872 171.426 L 580.872 171.426 L 580.872 171.426 Q 579.556 170.152 578.8 168.262 L 578.8 168.262 L 578.8 168.262 Q 578.044 166.372 578.044 163.88 L 578.044 163.88 L 578.044 163.88 Q 578.044 161.388 578.828 159.498 L 578.828 159.498 L 578.828 159.498 Q 579.612 157.608 580.942 156.32 L 580.942 156.32 L 580.942 156.32 Q 582.272 155.032 584.022 154.388 L 584.022 154.388 L 584.022 154.388 Q 585.772 153.744 587.704 153.744 L 587.704 153.744 L 587.704 153.744 Q 589.692 153.744 591.456 154.388 L 591.456 154.388 L 591.456 154.388 Q 593.22 155.032 594.536 156.32 L 594.536 156.32 L 594.536 156.32 Q 595.852 157.608 596.608 159.498 L 596.608 159.498 L 596.608 159.498 Q 597.364 161.388 597.364 163.88 Z  M 388.512 173.596 L 383.836 173.596 L 383.836 173.596 Q 383.513 172.588 383.126 171.524 L 383.126 171.524 L 383.126 171.524 Q 382.739 170.46 382.367 169.396 L 382.367 169.396 L 374.846 169.396 L 374.846 169.396 Q 374.477 170.46 374.109 171.524 L 374.109 171.524 L 374.109 171.524 Q 373.741 172.588 373.392 173.596 L 373.392 173.596 L 368.856 173.596 L 368.856 173.596 Q 369.947 170.46 370.927 167.8 L 370.927 167.8 L 370.927 167.8 Q 371.906 165.14 372.843 162.788 L 372.843 162.788 L 372.843 162.788 Q 373.781 160.436 374.69 158.322 L 374.69 158.322 L 374.69 158.322 Q 375.599 156.208 376.579 154.192 L 376.579 154.192 L 380.805 154.192 L 380.805 154.192 Q 381.754 156.208 382.676 158.322 L 382.676 158.322 L 382.676 158.322 Q 383.597 160.436 384.533 162.788 L 384.533 162.788 L 384.533 162.788 Q 385.468 165.14 386.446 167.8 L 386.446 167.8 L 386.446 167.8 Q 387.423 170.46 388.512 173.596 L 388.512 173.596 L 388.512 173.596 Z  M 378.586 158.588 L 378.586 158.588 L 378.586 158.588 Q 378.441 159.008 378.174 159.736 L 378.174 159.736 L 378.174 159.736 Q 377.907 160.464 377.533 161.416 L 377.533 161.416 L 377.533 161.416 Q 377.159 162.368 376.734 163.516 L 376.734 163.516 L 376.734 163.516 Q 376.308 164.664 375.869 165.924 L 375.869 165.924 L 381.33 165.924 L 381.33 165.924 Q 380.886 164.664 380.469 163.516 L 380.469 163.516 L 380.469 163.516 Q 380.052 162.368 379.677 161.416 L 379.677 161.416 L 379.677 161.416 Q 379.302 160.464 379.017 159.736 L 379.017 159.736 L 379.017 159.736 Q 378.733 159.008 378.586 158.588 Z  M 399.152 173.988 L 399.152 173.988 L 399.152 173.988 Q 394.42 173.988 391.942 171.356 L 391.942 171.356 L 391.942 171.356 Q 389.464 168.724 389.464 163.88 L 389.464 163.88 L 389.464 163.88 Q 389.464 161.472 390.22 159.582 L 390.22 159.582 L 390.22 159.582 Q 390.976 157.692 392.292 156.39 L 392.292 156.39 L 392.292 156.39 Q 393.608 155.088 395.428 154.416 L 395.428 154.416 L 395.428 154.416 Q 397.248 153.744 399.376 153.744 L 399.376 153.744 L 399.376 153.744 Q 400.608 153.744 401.616 153.926 L 401.616 153.926 L 401.616 153.926 Q 402.624 154.108 403.38 154.346 L 403.38 154.346 L 403.38 154.346 Q 404.136 154.584 404.64 154.836 L 404.64 154.836 L 404.64 154.836 Q 405.144 155.088 405.368 155.228 L 405.368 155.228 L 404.108 158.756 L 404.108 158.756 Q 403.212 158.28 402.022 157.944 L 402.022 157.944 L 402.022 157.944 Q 400.832 157.608 399.32 157.608 L 399.32 157.608 L 399.32 157.608 Q 398.312 157.608 397.346 157.944 L 397.346 157.944 L 397.346 157.944 Q 396.38 158.28 395.638 159.022 L 395.638 159.022 L 395.638 159.022 Q 394.896 159.764 394.448 160.94 L 394.448 160.94 L 394.448 160.94 Q 394 162.116 394 163.796 L 394 163.796 L 394 163.796 Q 394 165.14 394.294 166.302 L 394.294 166.302 L 394.294 166.302 Q 394.588 167.464 395.246 168.304 L 395.246 168.304 L 395.246 168.304 Q 395.904 169.144 396.968 169.634 L 396.968 169.634 L 396.968 169.634 Q 398.032 170.124 399.544 170.124 L 399.544 170.124 L 399.544 170.124 Q 400.496 170.124 401.252 170.012 L 401.252 170.012 L 401.252 170.012 Q 402.008 169.9 402.596 169.746 L 402.596 169.746 L 402.596 169.746 Q 403.184 169.592 403.632 169.396 L 403.632 169.396 L 403.632 169.396 Q 404.08 169.2 404.444 169.032 L 404.444 169.032 L 405.648 172.532 L 405.648 172.532 Q 404.724 173.092 403.044 173.54 L 403.044 173.54 L 403.044 173.54 Q 401.364 173.988 399.152 173.988 Z  M 416.596 173.988 L 416.596 173.988 L 416.596 173.988 Q 411.864 173.988 409.386 171.356 L 409.386 171.356 L 409.386 171.356 Q 406.908 168.724 406.908 163.88 L 406.908 163.88 L 406.908 163.88 Q 406.908 161.472 407.664 159.582 L 407.664 159.582 L 407.664 159.582 Q 408.42 157.692 409.736 156.39 L 409.736 156.39 L 409.736 156.39 Q 411.052 155.088 412.872 154.416 L 412.872 154.416 L 412.872 154.416 Q 414.692 153.744 416.82 153.744 L 416.82 153.744 L 416.82 153.744 Q 418.052 153.744 419.06 153.926 L 419.06 153.926 L 419.06 153.926 Q 420.068 154.108 420.824 154.346 L 420.824 154.346 L 420.824 154.346 Q 421.58 154.584 422.084 154.836 L 422.084 154.836 L 422.084 154.836 Q 422.588 155.088 422.812 155.228 L 422.812 155.228 L 421.552 158.756 L 421.552 158.756 Q 420.656 158.28 419.466 157.944 L 419.466 157.944 L 419.466 157.944 Q 418.276 157.608 416.764 157.608 L 416.764 157.608 L 416.764 157.608 Q 415.756 157.608 414.79 157.944 L 414.79 157.944 L 414.79 157.944 Q 413.824 158.28 413.082 159.022 L 413.082 159.022 L 413.082 159.022 Q 412.34 159.764 411.892 160.94 L 411.892 160.94 L 411.892 160.94 Q 411.444 162.116 411.444 163.796 L 411.444 163.796 L 411.444 163.796 Q 411.444 165.14 411.738 166.302 L 411.738 166.302 L 411.738 166.302 Q 412.032 167.464 412.69 168.304 L 412.69 168.304 L 412.69 168.304 Q 413.348 169.144 414.412 169.634 L 414.412 169.634 L 414.412 169.634 Q 415.476 170.124 416.988 170.124 L 416.988 170.124 L 416.988 170.124 Q 417.94 170.124 418.696 170.012 L 418.696 170.012 L 418.696 170.012 Q 419.452 169.9 420.04 169.746 L 420.04 169.746 L 420.04 169.746 Q 420.628 169.592 421.076 169.396 L 421.076 169.396 L 421.076 169.396 Q 421.524 169.2 421.888 169.032 L 421.888 169.032 L 423.092 172.532 L 423.092 172.532 Q 422.168 173.092 420.488 173.54 L 420.488 173.54 L 420.488 173.54 Q 418.808 173.988 416.596 173.988 Z  M 439.64 173.596 L 425.892 173.596 L 425.892 154.192 L 438.996 154.192 L 438.996 157.86 L 430.26 157.86 L 430.26 161.668 L 438.016 161.668 L 438.016 165.252 L 430.26 165.252 L 430.26 169.928 L 439.64 169.928 L 439.64 173.596 L 439.64 173.596 Z  M 448.152 170.264 L 448.152 170.264 L 448.152 170.264 Q 449.076 170.264 449.678 170.11 L 449.678 170.11 L 449.678 170.11 Q 450.28 169.956 450.644 169.69 L 450.644 169.69 L 450.644 169.69 Q 451.008 169.424 451.148 169.06 L 451.148 169.06 L 451.148 169.06 Q 451.288 168.696 451.288 168.248 L 451.288 168.248 L 451.288 168.248 Q 451.288 167.296 450.392 166.666 L 450.392 166.666 L 450.392 166.666 Q 449.496 166.036 447.312 165.308 L 447.312 165.308 L 447.312 165.308 Q 446.36 164.972 445.408 164.538 L 445.408 164.538 L 445.408 164.538 Q 444.456 164.104 443.7 163.446 L 443.7 163.446 L 443.7 163.446 Q 442.944 162.788 442.468 161.85 L 442.468 161.85 L 442.468 161.85 Q 441.992 160.912 441.992 159.568 L 441.992 159.568 L 441.992 159.568 Q 441.992 158.224 442.496 157.146 L 442.496 157.146 L 442.496 157.146 Q 443 156.068 443.924 155.312 L 443.924 155.312 L 443.924 155.312 Q 444.848 154.556 446.164 154.15 L 446.164 154.15 L 446.164 154.15 Q 447.48 153.744 449.132 153.744 L 449.132 153.744 L 449.132 153.744 Q 451.092 153.744 452.52 154.164 L 452.52 154.164 L 452.52 154.164 Q 453.948 154.584 454.872 155.088 L 454.872 155.088 L 453.612 158.532 L 453.612 158.532 Q 452.8 158.112 451.806 157.79 L 451.806 157.79 L 451.806 157.79 Q 450.812 157.468 449.412 157.468 L 449.412 157.468 L 449.412 157.468 Q 447.844 157.468 447.158 157.902 L 447.158 157.902 L 447.158 157.902 Q 446.472 158.336 446.472 159.232 L 446.472 159.232 L 446.472 159.232 Q 446.472 159.764 446.724 160.128 L 446.724 160.128 L 446.724 160.128 Q 446.976 160.492 447.438 160.786 L 447.438 160.786 L 447.438 160.786 Q 447.9 161.08 448.502 161.318 L 448.502 161.318 L 448.502 161.318 Q 449.104 161.556 449.832 161.808 L 449.832 161.808 L 449.832 161.808 Q 451.344 162.368 452.464 162.914 L 452.464 162.914 L 452.464 162.914 Q 453.584 163.46 454.326 164.188 L 454.326 164.188 L 454.326 164.188 Q 455.068 164.916 455.432 165.896 L 455.432 165.896 L 455.432 165.896 Q 455.796 166.876 455.796 168.276 L 455.796 168.276 L 455.796 168.276 Q 455.796 170.992 453.892 172.49 L 453.892 172.49 L 453.892 172.49 Q 451.988 173.988 448.152 173.988 L 448.152 173.988 L 448.152 173.988 Q 446.864 173.988 445.828 173.834 L 445.828 173.834 L 445.828 173.834 Q 444.792 173.68 443.994 173.456 L 443.994 173.456 L 443.994 173.456 Q 443.196 173.232 442.622 172.98 L 442.622 172.98 L 442.622 172.98 Q 442.048 172.728 441.656 172.504 L 441.656 172.504 L 442.888 169.032 L 442.888 169.032 Q 443.756 169.508 445.03 169.886 L 445.03 169.886 L 445.03 169.886 Q 446.304 170.264 448.152 170.264 Z  M 462.824 163.88 L 462.824 163.88 L 462.824 163.88 Q 462.824 165.308 463.174 166.456 L 463.174 166.456 L 463.174 166.456 Q 463.524 167.604 464.182 168.43 L 464.182 168.43 L 464.182 168.43 Q 464.84 169.256 465.792 169.704 L 465.792 169.704 L 465.792 169.704 Q 466.744 170.152 467.976 170.152 L 467.976 170.152 L 467.976 170.152 Q 469.18 170.152 470.146 169.704 L 470.146 169.704 L 470.146 169.704 Q 471.112 169.256 471.77 168.43 L 471.77 168.43 L 471.77 168.43 Q 472.428 167.604 472.778 166.456 L 472.778 166.456 L 472.778 166.456 Q 473.128 165.308 473.128 163.88 L 473.128 163.88 L 473.128 163.88 Q 473.128 162.452 472.778 161.29 L 472.778 161.29 L 472.778 161.29 Q 472.428 160.128 471.77 159.302 L 471.77 159.302 L 471.77 159.302 Q 471.112 158.476 470.146 158.028 L 470.146 158.028 L 470.146 158.028 Q 469.18 157.58 467.976 157.58 L 467.976 157.58 L 467.976 157.58 Q 466.744 157.58 465.792 158.042 L 465.792 158.042 L 465.792 158.042 Q 464.84 158.504 464.182 159.33 L 464.182 159.33 L 464.182 159.33 Q 463.524 160.156 463.174 161.318 L 463.174 161.318 L 463.174 161.318 Q 462.824 162.48 462.824 163.88 Z  M 477.636 163.88 L 477.636 163.88 L 477.636 163.88 Q 477.636 166.372 476.894 168.262 L 476.894 168.262 L 476.894 168.262 Q 476.152 170.152 474.864 171.426 L 474.864 171.426 L 474.864 171.426 Q 473.576 172.7 471.798 173.344 L 471.798 173.344 L 471.798 173.344 Q 470.02 173.988 467.976 173.988 L 467.976 173.988 L 467.976 173.988 Q 465.988 173.988 464.224 173.344 L 464.224 173.344 L 464.224 173.344 Q 462.46 172.7 461.144 171.426 L 461.144 171.426 L 461.144 171.426 Q 459.828 170.152 459.072 168.262 L 459.072 168.262 L 459.072 168.262 Q 458.316 166.372 458.316 163.88 L 458.316 163.88 L 458.316 163.88 Q 458.316 161.388 459.1 159.498 L 459.1 159.498 L 459.1 159.498 Q 459.884 157.608 461.214 156.32 L 461.214 156.32 L 461.214 156.32 Q 462.544 155.032 464.294 154.388 L 464.294 154.388 L 464.294 154.388 Q 466.044 153.744 467.976 153.744 L 467.976 153.744 L 467.976 153.744 Q 469.964 153.744 471.728 154.388 L 471.728 154.388 L 471.728 154.388 Q 473.492 155.032 474.808 156.32 L 474.808 156.32 L 474.808 156.32 Q 476.124 157.608 476.88 159.498 L 476.88 159.498 L 476.88 159.498 Q 477.636 161.388 477.636 163.88 Z  M 330.86 157.776 L 330.86 170.04 L 330.86 170.04 Q 331.168 170.068 331.574 170.082 L 331.574 170.082 L 331.574 170.082 Q 331.98 170.096 332.54 170.096 L 332.54 170.096 L 332.54 170.096 Q 335.816 170.096 337.398 168.444 L 337.398 168.444 L 337.398 168.444 Q 338.98 166.792 338.98 163.88 L 338.98 163.88 L 338.98 163.88 Q 338.98 160.828 337.468 159.26 L 337.468 159.26 L 337.468 159.26 Q 335.956 157.692 332.68 157.692 L 332.68 157.692 L 332.68 157.692 Q 332.232 157.692 331.756 157.706 L 331.756 157.706 L 331.756 157.706 Q 331.28 157.72 330.86 157.776 L 330.86 157.776 L 330.86 157.776 Z  M 343.488 163.88 L 343.488 163.88 L 343.488 163.88 Q 343.488 166.4 342.704 168.276 L 342.704 168.276 L 342.704 168.276 Q 341.92 170.152 340.478 171.384 L 340.478 171.384 L 340.478 171.384 Q 339.036 172.616 336.964 173.232 L 336.964 173.232 L 336.964 173.232 Q 334.892 173.848 332.316 173.848 L 332.316 173.848 L 332.316 173.848 Q 331.14 173.848 329.572 173.75 L 329.572 173.75 L 329.572 173.75 Q 328.004 173.652 326.492 173.344 L 326.492 173.344 L 326.492 154.444 L 326.492 154.444 Q 328.004 154.164 329.642 154.066 L 329.642 154.066 L 329.642 154.066 Q 331.28 153.968 332.456 153.968 L 332.456 153.968 L 332.456 153.968 Q 334.948 153.968 336.978 154.528 L 336.978 154.528 L 336.978 154.528 Q 339.008 155.088 340.464 156.292 L 340.464 156.292 L 340.464 156.292 Q 341.92 157.496 342.704 159.372 L 342.704 159.372 L 342.704 159.372 Q 343.488 161.248 343.488 163.88 Z  M 360.876 173.596 L 347.128 173.596 L 347.128 154.192 L 360.232 154.192 L 360.232 157.86 L 351.496 157.86 L 351.496 161.668 L 359.252 161.668 L 359.252 165.252 L 351.496 165.252 L 351.496 169.928 L 360.876 169.928 L 360.876 173.596 L 360.876 173.596 Z  M 194.64 173.988 L 194.64 173.988 L 194.64 173.988 Q 189.908 173.988 187.43 171.356 L 187.43 171.356 L 187.43 171.356 Q 184.952 168.724 184.952 163.88 L 184.952 163.88 L 184.952 163.88 Q 184.952 161.472 185.708 159.582 L 185.708 159.582 L 185.708 159.582 Q 186.464 157.692 187.78 156.39 L 187.78 156.39 L 187.78 156.39 Q 189.096 155.088 190.916 154.416 L 190.916 154.416 L 190.916 154.416 Q 192.736 153.744 194.864 153.744 L 194.864 153.744 L 194.864 153.744 Q 196.096 153.744 197.104 153.926 L 197.104 153.926 L 197.104 153.926 Q 198.112 154.108 198.868 154.346 L 198.868 154.346 L 198.868 154.346 Q 199.624 154.584 200.128 154.836 L 200.128 154.836 L 200.128 154.836 Q 200.632 155.088 200.856 155.228 L 200.856 155.228 L 199.596 158.756 L 199.596 158.756 Q 198.7 158.28 197.51 157.944 L 197.51 157.944 L 197.51 157.944 Q 196.32 157.608 194.808 157.608 L 194.808 157.608 L 194.808 157.608 Q 193.8 157.608 192.834 157.944 L 192.834 157.944 L 192.834 157.944 Q 191.868 158.28 191.126 159.022 L 191.126 159.022 L 191.126 159.022 Q 190.384 159.764 189.936 160.94 L 189.936 160.94 L 189.936 160.94 Q 189.488 162.116 189.488 163.796 L 189.488 163.796 L 189.488 163.796 Q 189.488 165.14 189.782 166.302 L 189.782 166.302 L 189.782 166.302 Q 190.076 167.464 190.734 168.304 L 190.734 168.304 L 190.734 168.304 Q 191.392 169.144 192.456 169.634 L 192.456 169.634 L 192.456 169.634 Q 193.52 170.124 195.032 170.124 L 195.032 170.124 L 195.032 170.124 Q 195.984 170.124 196.74 170.012 L 196.74 170.012 L 196.74 170.012 Q 197.496 169.9 198.084 169.746 L 198.084 169.746 L 198.084 169.746 Q 198.672 169.592 199.12 169.396 L 199.12 169.396 L 199.12 169.396 Q 199.568 169.2 199.932 169.032 L 199.932 169.032 L 201.136 172.532 L 201.136 172.532 Q 200.212 173.092 198.532 173.54 L 198.532 173.54 L 198.532 173.54 Q 196.852 173.988 194.64 173.988 Z  M 206.904 163.88 L 206.904 163.88 L 206.904 163.88 Q 206.904 165.308 207.254 166.456 L 207.254 166.456 L 207.254 166.456 Q 207.604 167.604 208.262 168.43 L 208.262 168.43 L 208.262 168.43 Q 208.92 169.256 209.872 169.704 L 209.872 169.704 L 209.872 169.704 Q 210.824 170.152 212.056 170.152 L 212.056 170.152 L 212.056 170.152 Q 213.26 170.152 214.226 169.704 L 214.226 169.704 L 214.226 169.704 Q 215.192 169.256 215.85 168.43 L 215.85 168.43 L 215.85 168.43 Q 216.508 167.604 216.858 166.456 L 216.858 166.456 L 216.858 166.456 Q 217.208 165.308 217.208 163.88 L 217.208 163.88 L 217.208 163.88 Q 217.208 162.452 216.858 161.29 L 216.858 161.29 L 216.858 161.29 Q 216.508 160.128 215.85 159.302 L 215.85 159.302 L 215.85 159.302 Q 215.192 158.476 214.226 158.028 L 214.226 158.028 L 214.226 158.028 Q 213.26 157.58 212.056 157.58 L 212.056 157.58 L 212.056 157.58 Q 210.824 157.58 209.872 158.042 L 209.872 158.042 L 209.872 158.042 Q 208.92 158.504 208.262 159.33 L 208.262 159.33 L 208.262 159.33 Q 207.604 160.156 207.254 161.318 L 207.254 161.318 L 207.254 161.318 Q 206.904 162.48 206.904 163.88 Z  M 221.716 163.88 L 221.716 163.88 L 221.716 163.88 Q 221.716 166.372 220.974 168.262 L 220.974 168.262 L 220.974 168.262 Q 220.232 170.152 218.944 171.426 L 218.944 171.426 L 218.944 171.426 Q 217.656 172.7 215.878 173.344 L 215.878 173.344 L 215.878 173.344 Q 214.1 173.988 212.056 173.988 L 212.056 173.988 L 212.056 173.988 Q 210.068 173.988 208.304 173.344 L 208.304 173.344 L 208.304 173.344 Q 206.54 172.7 205.224 171.426 L 205.224 171.426 L 205.224 171.426 Q 203.908 170.152 203.152 168.262 L 203.152 168.262 L 203.152 168.262 Q 202.396 166.372 202.396 163.88 L 202.396 163.88 L 202.396 163.88 Q 202.396 161.388 203.18 159.498 L 203.18 159.498 L 203.18 159.498 Q 203.964 157.608 205.294 156.32 L 205.294 156.32 L 205.294 156.32 Q 206.624 155.032 208.374 154.388 L 208.374 154.388 L 208.374 154.388 Q 210.124 153.744 212.056 153.744 L 212.056 153.744 L 212.056 153.744 Q 214.044 153.744 215.808 154.388 L 215.808 154.388 L 215.808 154.388 Q 217.572 155.032 218.888 156.32 L 218.888 156.32 L 218.888 156.32 Q 220.204 157.608 220.96 159.498 L 220.96 159.498 L 220.96 159.498 Q 221.716 161.388 221.716 163.88 Z  M 242.044 173.596 L 238.376 173.596 L 238.376 173.596 Q 236.5 170.264 234.316 167.016 L 234.316 167.016 L 234.316 167.016 Q 232.132 163.768 229.668 160.884 L 229.668 160.884 L 229.668 173.596 L 225.356 173.596 L 225.356 154.192 L 228.912 154.192 L 228.912 154.192 Q 229.836 155.116 230.956 156.46 L 230.956 156.46 L 230.956 156.46 Q 232.076 157.804 233.238 159.33 L 233.238 159.33 L 233.238 159.33 Q 234.4 160.856 235.548 162.494 L 235.548 162.494 L 235.548 162.494 Q 236.696 164.132 237.704 165.644 L 237.704 165.644 L 237.704 154.192 L 242.044 154.192 L 242.044 173.596 L 242.044 173.596 Z  M 244.844 154.192 L 260.916 154.192 L 260.916 157.916 L 255.064 157.916 L 255.064 173.596 L 250.696 173.596 L 250.696 157.916 L 244.844 157.916 L 244.844 154.192 L 244.844 154.192 Z  M 269.4 153.968 L 269.4 153.968 L 269.4 153.968 Q 273.768 153.968 276.092 155.522 L 276.092 155.522 L 276.092 155.522 Q 278.416 157.076 278.416 160.352 L 278.416 160.352 L 278.416 160.352 Q 278.416 162.396 277.478 163.67 L 277.478 163.67 L 277.478 163.67 Q 276.54 164.944 274.776 165.672 L 274.776 165.672 L 274.776 165.672 Q 275.364 166.4 276.008 167.338 L 276.008 167.338 L 276.008 167.338 Q 276.652 168.276 277.282 169.298 L 277.282 169.298 L 277.282 169.298 Q 277.912 170.32 278.5 171.426 L 278.5 171.426 L 278.5 171.426 Q 279.088 172.532 279.592 173.596 L 279.592 173.596 L 274.677 173.596 L 274.677 173.596 Q 274.146 172.644 273.602 171.664 L 273.602 171.664 L 273.602 171.664 Q 273.058 170.684 272.486 169.76 L 272.486 169.76 L 272.486 169.76 Q 271.914 168.836 271.356 168.01 L 271.356 168.01 L 271.356 168.01 Q 270.798 167.184 270.24 166.512 L 270.24 166.512 L 268.084 166.512 L 268.084 173.596 L 263.716 173.596 L 263.716 154.472 L 263.716 154.472 Q 265.144 154.192 266.67 154.08 L 266.67 154.08 L 266.67 154.08 Q 268.196 153.968 269.4 153.968 Z  M 269.652 157.692 L 269.652 157.692 L 269.652 157.692 Q 269.176 157.692 268.798 157.72 L 268.798 157.72 L 268.798 157.72 Q 268.42 157.748 268.084 157.776 L 268.084 157.776 L 268.084 163.04 L 269.316 163.04 L 269.316 163.04 Q 271.78 163.04 272.844 162.424 L 272.844 162.424 L 272.844 162.424 Q 273.908 161.808 273.908 160.324 L 273.908 160.324 L 273.908 160.324 Q 273.908 158.896 272.83 158.294 L 272.83 158.294 L 272.83 158.294 Q 271.752 157.692 269.652 157.692 Z  M 285.556 163.88 L 285.556 163.88 L 285.556 163.88 Q 285.556 165.308 285.906 166.456 L 285.906 166.456 L 285.906 166.456 Q 286.256 167.604 286.914 168.43 L 286.914 168.43 L 286.914 168.43 Q 287.572 169.256 288.524 169.704 L 288.524 169.704 L 288.524 169.704 Q 289.476 170.152 290.708 170.152 L 290.708 170.152 L 290.708 170.152 Q 291.912 170.152 292.878 169.704 L 292.878 169.704 L 292.878 169.704 Q 293.844 169.256 294.502 168.43 L 294.502 168.43 L 294.502 168.43 Q 295.16 167.604 295.51 166.456 L 295.51 166.456 L 295.51 166.456 Q 295.86 165.308 295.86 163.88 L 295.86 163.88 L 295.86 163.88 Q 295.86 162.452 295.51 161.29 L 295.51 161.29 L 295.51 161.29 Q 295.16 160.128 294.502 159.302 L 294.502 159.302 L 294.502 159.302 Q 293.844 158.476 292.878 158.028 L 292.878 158.028 L 292.878 158.028 Q 291.912 157.58 290.708 157.58 L 290.708 157.58 L 290.708 157.58 Q 289.476 157.58 288.524 158.042 L 288.524 158.042 L 288.524 158.042 Q 287.572 158.504 286.914 159.33 L 286.914 159.33 L 286.914 159.33 Q 286.256 160.156 285.906 161.318 L 285.906 161.318 L 285.906 161.318 Q 285.556 162.48 285.556 163.88 Z  M 300.368 163.88 L 300.368 163.88 L 300.368 163.88 Q 300.368 166.372 299.626 168.262 L 299.626 168.262 L 299.626 168.262 Q 298.884 170.152 297.596 171.426 L 297.596 171.426 L 297.596 171.426 Q 296.308 172.7 294.53 173.344 L 294.53 173.344 L 294.53 173.344 Q 292.752 173.988 290.708 173.988 L 290.708 173.988 L 290.708 173.988 Q 288.72 173.988 286.956 173.344 L 286.956 173.344 L 286.956 173.344 Q 285.192 172.7 283.876 171.426 L 283.876 171.426 L 283.876 171.426 Q 282.56 170.152 281.804 168.262 L 281.804 168.262 L 281.804 168.262 Q 281.048 166.372 281.048 163.88 L 281.048 163.88 L 281.048 163.88 Q 281.048 161.388 281.832 159.498 L 281.832 159.498 L 281.832 159.498 Q 282.616 157.608 283.946 156.32 L 283.946 156.32 L 283.946 156.32 Q 285.276 155.032 287.026 154.388 L 287.026 154.388 L 287.026 154.388 Q 288.776 153.744 290.708 153.744 L 290.708 153.744 L 290.708 153.744 Q 292.696 153.744 294.46 154.388 L 294.46 154.388 L 294.46 154.388 Q 296.224 155.032 297.54 156.32 L 297.54 156.32 L 297.54 156.32 Q 298.856 157.608 299.612 159.498 L 299.612 159.498 L 299.612 159.498 Q 300.368 161.388 300.368 163.88 Z  M 308.376 169.844 L 316.972 169.844 L 316.972 173.596 L 304.008 173.596 L 304.008 154.192 L 308.376 154.192 L 308.376 169.844 L 308.376 169.844 Z  M 167.671 162.151 L 167.671 162.151 L 167.671 162.151 Q 168.848 160.168 169.914 158.185 L 169.914 158.185 L 169.914 158.185 Q 170.979 156.203 171.876 154.192 L 171.876 154.192 L 176.692 154.192 L 176.692 154.192 Q 175.096 157.328 173.388 160.268 L 173.388 160.268 L 173.388 160.268 Q 171.68 163.208 169.776 166.176 L 169.776 166.176 L 169.776 173.596 L 165.408 173.596 L 165.408 166.232 L 165.408 166.232 Q 163.504 163.264 161.782 160.296 L 161.782 160.296 L 161.782 160.296 Q 160.06 157.328 158.464 154.192 L 158.464 154.192 L 163.532 154.192 L 163.532 154.192 Q 164.427 156.203 165.462 158.185 L 165.462 158.185 L 165.462 158.185 Q 166.496 160.168 167.671 162.151 Z  M 22.16 153.968 L 22.16 153.968 L 22.16 153.968 Q 26.528 153.968 28.852 155.522 L 28.852 155.522 L 28.852 155.522 Q 31.176 157.076 31.176 160.352 L 31.176 160.352 L 31.176 160.352 Q 31.176 162.396 30.238 163.67 L 30.238 163.67 L 30.238 163.67 Q 29.3 164.944 27.536 165.672 L 27.536 165.672 L 27.536 165.672 Q 28.124 166.4 28.768 167.338 L 28.768 167.338 L 28.768 167.338 Q 29.412 168.276 30.042 169.298 L 30.042 169.298 L 30.042 169.298 Q 30.672 170.32 31.26 171.426 L 31.26 171.426 L 31.26 171.426 Q 31.848 172.532 32.352 173.596 L 32.352 173.596 L 27.437 173.596 L 27.437 173.596 Q 26.906 172.644 26.362 171.664 L 26.362 171.664 L 26.362 171.664 Q 25.818 170.684 25.246 169.76 L 25.246 169.76 L 25.246 169.76 Q 24.674 168.836 24.116 168.01 L 24.116 168.01 L 24.116 168.01 Q 23.558 167.184 23 166.512 L 23 166.512 L 20.844 166.512 L 20.844 173.596 L 16.476 173.596 L 16.476 154.472 L 16.476 154.472 Q 17.904 154.192 19.43 154.08 L 19.43 154.08 L 19.43 154.08 Q 20.956 153.968 22.16 153.968 Z  M 22.412 157.692 L 22.412 157.692 L 22.412 157.692 Q 21.936 157.692 21.558 157.72 L 21.558 157.72 L 21.558 157.72 Q 21.18 157.748 20.844 157.776 L 20.844 157.776 L 20.844 163.04 L 22.076 163.04 L 22.076 163.04 Q 24.54 163.04 25.604 162.424 L 25.604 162.424 L 25.604 162.424 Q 26.668 161.808 26.668 160.324 L 26.668 160.324 L 26.668 160.324 Q 26.668 158.896 25.59 158.294 L 25.59 158.294 L 25.59 158.294 Q 24.512 157.692 22.412 157.692 Z  M 48.9 173.596 L 35.152 173.596 L 35.152 154.192 L 48.256 154.192 L 48.256 157.86 L 39.52 157.86 L 39.52 161.668 L 47.276 161.668 L 47.276 165.252 L 39.52 165.252 L 39.52 169.928 L 48.9 169.928 L 48.9 173.596 L 48.9 173.596 Z  M 61.584 157.552 L 61.584 157.552 L 61.584 157.552 Q 58.532 157.552 57.174 159.246 L 57.174 159.246 L 57.174 159.246 Q 55.816 160.94 55.816 163.88 L 55.816 163.88 L 55.816 163.88 Q 55.816 165.308 56.152 166.47 L 56.152 166.47 L 56.152 166.47 Q 56.488 167.632 57.16 168.472 L 57.16 168.472 L 57.16 168.472 Q 57.832 169.312 58.84 169.774 L 58.84 169.774 L 58.84 169.774 Q 59.848 170.236 61.192 170.236 L 61.192 170.236 L 61.192 170.236 Q 61.92 170.236 62.438 170.208 L 62.438 170.208 L 62.438 170.208 Q 62.956 170.18 63.348 170.096 L 63.348 170.096 L 63.348 163.348 L 67.716 163.348 L 67.716 172.952 L 67.716 172.952 Q 66.932 173.26 65.196 173.61 L 65.196 173.61 L 65.196 173.61 Q 63.46 173.96 60.912 173.96 L 60.912 173.96 L 60.912 173.96 Q 58.728 173.96 56.95 173.288 L 56.95 173.288 L 56.95 173.288 Q 55.172 172.616 53.912 171.328 L 53.912 171.328 L 53.912 171.328 Q 52.652 170.04 51.966 168.164 L 51.966 168.164 L 51.966 168.164 Q 51.28 166.288 51.28 163.88 L 51.28 163.88 L 51.28 163.88 Q 51.28 161.444 52.036 159.568 L 52.036 159.568 L 52.036 159.568 Q 52.792 157.692 54.108 156.39 L 54.108 156.39 L 54.108 156.39 Q 55.424 155.088 57.202 154.416 L 57.202 154.416 L 57.202 154.416 Q 58.98 153.744 60.996 153.744 L 60.996 153.744 L 60.996 153.744 Q 62.368 153.744 63.474 153.926 L 63.474 153.926 L 63.474 153.926 Q 64.58 154.108 65.378 154.346 L 65.378 154.346 L 65.378 154.346 Q 66.176 154.584 66.694 154.836 L 66.694 154.836 L 66.694 154.836 Q 67.212 155.088 67.436 155.228 L 67.436 155.228 L 66.176 158.728 L 66.176 158.728 Q 65.28 158.252 64.118 157.902 L 64.118 157.902 L 64.118 157.902 Q 62.956 157.552 61.584 157.552 Z  M 71.776 173.596 L 71.776 154.192 L 76.144 154.192 L 76.144 173.596 L 71.776 173.596 L 71.776 173.596 Z  M 85.916 170.264 L 85.916 170.264 L 85.916 170.264 Q 86.84 170.264 87.442 170.11 L 87.442 170.11 L 87.442 170.11 Q 88.044 169.956 88.408 169.69 L 88.408 169.69 L 88.408 169.69 Q 88.772 169.424 88.912 169.06 L 88.912 169.06 L 88.912 169.06 Q 89.052 168.696 89.052 168.248 L 89.052 168.248 L 89.052 168.248 Q 89.052 167.296 88.156 166.666 L 88.156 166.666 L 88.156 166.666 Q 87.26 166.036 85.076 165.308 L 85.076 165.308 L 85.076 165.308 Q 84.124 164.972 83.172 164.538 L 83.172 164.538 L 83.172 164.538 Q 82.22 164.104 81.464 163.446 L 81.464 163.446 L 81.464 163.446 Q 80.708 162.788 80.232 161.85 L 80.232 161.85 L 80.232 161.85 Q 79.756 160.912 79.756 159.568 L 79.756 159.568 L 79.756 159.568 Q 79.756 158.224 80.26 157.146 L 80.26 157.146 L 80.26 157.146 Q 80.764 156.068 81.688 155.312 L 81.688 155.312 L 81.688 155.312 Q 82.612 154.556 83.928 154.15 L 83.928 154.15 L 83.928 154.15 Q 85.244 153.744 86.896 153.744 L 86.896 153.744 L 86.896 153.744 Q 88.856 153.744 90.284 154.164 L 90.284 154.164 L 90.284 154.164 Q 91.712 154.584 92.636 155.088 L 92.636 155.088 L 91.376 158.532 L 91.376 158.532 Q 90.564 158.112 89.57 157.79 L 89.57 157.79 L 89.57 157.79 Q 88.576 157.468 87.176 157.468 L 87.176 157.468 L 87.176 157.468 Q 85.608 157.468 84.922 157.902 L 84.922 157.902 L 84.922 157.902 Q 84.236 158.336 84.236 159.232 L 84.236 159.232 L 84.236 159.232 Q 84.236 159.764 84.488 160.128 L 84.488 160.128 L 84.488 160.128 Q 84.74 160.492 85.202 160.786 L 85.202 160.786 L 85.202 160.786 Q 85.664 161.08 86.266 161.318 L 86.266 161.318 L 86.266 161.318 Q 86.868 161.556 87.596 161.808 L 87.596 161.808 L 87.596 161.808 Q 89.108 162.368 90.228 162.914 L 90.228 162.914 L 90.228 162.914 Q 91.348 163.46 92.09 164.188 L 92.09 164.188 L 92.09 164.188 Q 92.832 164.916 93.196 165.896 L 93.196 165.896 L 93.196 165.896 Q 93.56 166.876 93.56 168.276 L 93.56 168.276 L 93.56 168.276 Q 93.56 170.992 91.656 172.49 L 91.656 172.49 L 91.656 172.49 Q 89.752 173.988 85.916 173.988 L 85.916 173.988 L 85.916 173.988 Q 84.628 173.988 83.592 173.834 L 83.592 173.834 L 83.592 173.834 Q 82.556 173.68 81.758 173.456 L 81.758 173.456 L 81.758 173.456 Q 80.96 173.232 80.386 172.98 L 80.386 172.98 L 80.386 172.98 Q 79.812 172.728 79.42 172.504 L 79.42 172.504 L 80.652 169.032 L 80.652 169.032 Q 81.52 169.508 82.794 169.886 L 82.794 169.886 L 82.794 169.886 Q 84.068 170.264 85.916 170.264 Z  M 94.68 154.192 L 110.752 154.192 L 110.752 157.916 L 104.9 157.916 L 104.9 173.596 L 100.532 173.596 L 100.532 157.916 L 94.68 157.916 L 94.68 154.192 L 94.68 154.192 Z  M 119.236 153.968 L 119.236 153.968 L 119.236 153.968 Q 123.604 153.968 125.928 155.522 L 125.928 155.522 L 125.928 155.522 Q 128.252 157.076 128.252 160.352 L 128.252 160.352 L 128.252 160.352 Q 128.252 162.396 127.314 163.67 L 127.314 163.67 L 127.314 163.67 Q 126.376 164.944 124.612 165.672 L 124.612 165.672 L 124.612 165.672 Q 125.2 166.4 125.844 167.338 L 125.844 167.338 L 125.844 167.338 Q 126.488 168.276 127.118 169.298 L 127.118 169.298 L 127.118 169.298 Q 127.748 170.32 128.336 171.426 L 128.336 171.426 L 128.336 171.426 Q 128.924 172.532 129.428 173.596 L 129.428 173.596 L 124.513 173.596 L 124.513 173.596 Q 123.982 172.644 123.438 171.664 L 123.438 171.664 L 123.438 171.664 Q 122.894 170.684 122.322 169.76 L 122.322 169.76 L 122.322 169.76 Q 121.75 168.836 121.192 168.01 L 121.192 168.01 L 121.192 168.01 Q 120.634 167.184 120.076 166.512 L 120.076 166.512 L 117.92 166.512 L 117.92 173.596 L 113.552 173.596 L 113.552 154.472 L 113.552 154.472 Q 114.98 154.192 116.506 154.08 L 116.506 154.08 L 116.506 154.08 Q 118.032 153.968 119.236 153.968 Z  M 119.488 157.692 L 119.488 157.692 L 119.488 157.692 Q 119.012 157.692 118.634 157.72 L 118.634 157.72 L 118.634 157.72 Q 118.256 157.748 117.92 157.776 L 117.92 157.776 L 117.92 163.04 L 119.152 163.04 L 119.152 163.04 Q 121.616 163.04 122.68 162.424 L 122.68 162.424 L 122.68 162.424 Q 123.744 161.808 123.744 160.324 L 123.744 160.324 L 123.744 160.324 Q 123.744 158.896 122.666 158.294 L 122.666 158.294 L 122.666 158.294 Q 121.588 157.692 119.488 157.692 Z  M 135.392 163.88 L 135.392 163.88 L 135.392 163.88 Q 135.392 165.308 135.742 166.456 L 135.742 166.456 L 135.742 166.456 Q 136.092 167.604 136.75 168.43 L 136.75 168.43 L 136.75 168.43 Q 137.408 169.256 138.36 169.704 L 138.36 169.704 L 138.36 169.704 Q 139.312 170.152 140.544 170.152 L 140.544 170.152 L 140.544 170.152 Q 141.748 170.152 142.714 169.704 L 142.714 169.704 L 142.714 169.704 Q 143.68 169.256 144.338 168.43 L 144.338 168.43 L 144.338 168.43 Q 144.996 167.604 145.346 166.456 L 145.346 166.456 L 145.346 166.456 Q 145.696 165.308 145.696 163.88 L 145.696 163.88 L 145.696 163.88 Q 145.696 162.452 145.346 161.29 L 145.346 161.29 L 145.346 161.29 Q 144.996 160.128 144.338 159.302 L 144.338 159.302 L 144.338 159.302 Q 143.68 158.476 142.714 158.028 L 142.714 158.028 L 142.714 158.028 Q 141.748 157.58 140.544 157.58 L 140.544 157.58 L 140.544 157.58 Q 139.312 157.58 138.36 158.042 L 138.36 158.042 L 138.36 158.042 Q 137.408 158.504 136.75 159.33 L 136.75 159.33 L 136.75 159.33 Q 136.092 160.156 135.742 161.318 L 135.742 161.318 L 135.742 161.318 Q 135.392 162.48 135.392 163.88 Z  M 150.204 163.88 L 150.204 163.88 L 150.204 163.88 Q 150.204 166.372 149.462 168.262 L 149.462 168.262 L 149.462 168.262 Q 148.72 170.152 147.432 171.426 L 147.432 171.426 L 147.432 171.426 Q 146.144 172.7 144.366 173.344 L 144.366 173.344 L 144.366 173.344 Q 142.588 173.988 140.544 173.988 L 140.544 173.988 L 140.544 173.988 Q 138.556 173.988 136.792 173.344 L 136.792 173.344 L 136.792 173.344 Q 135.028 172.7 133.712 171.426 L 133.712 171.426 L 133.712 171.426 Q 132.396 170.152 131.64 168.262 L 131.64 168.262 L 131.64 168.262 Q 130.884 166.372 130.884 163.88 L 130.884 163.88 L 130.884 163.88 Q 130.884 161.388 131.668 159.498 L 131.668 159.498 L 131.668 159.498 Q 132.452 157.608 133.782 156.32 L 133.782 156.32 L 133.782 156.32 Q 135.112 155.032 136.862 154.388 L 136.862 154.388 L 136.862 154.388 Q 138.612 153.744 140.544 153.744 L 140.544 153.744 L 140.544 153.744 Q 142.532 153.744 144.296 154.388 L 144.296 154.388 L 144.296 154.388 Q 146.06 155.032 147.376 156.32 L 147.376 156.32 L 147.376 156.32 Q 148.692 157.608 149.448 159.498 L 149.448 159.498 L 149.448 159.498 Q 150.204 161.388 150.204 163.88 Z " fill="rgb(168,168,168)"/></g></svg>